<?xml version="1.0" encoding="UTF-8" standalone="no"?>
<!DOCTYPE svg PUBLIC "-//W3C//DTD SVG 1.1//EN"
 "http://www.w3.org/Graphics/SVG/1.1/DTD/svg11.dtd">
<!-- Generated by graphviz version 2.47.3 (20210619.1520)
 -->
<!-- Title: dependencies Pages: 1 -->
<svg width="442pt" height="247pt"
 viewBox="0.00 0.00 442.00 246.80" xmlns="http://www.w3.org/2000/svg" xmlns:xlink="http://www.w3.org/1999/xlink">
<g id="graph0" class="graph" transform="scale(1 1) rotate(0) translate(4 242.8)">
<title>dependencies</title>
<polygon fill="white" stroke="transparent" points="-4,4 -4,-242.8 438,-242.8 438,4 -4,4"/>
<text text-anchor="middle" x="217" y="-8.2" font-family="sans-serif" font-size="14.00">dependencies</text>
<g id="clust1" class="cluster">
<title>cluster_UserModule</title>
<polygon fill="none" stroke="black" stroke-dasharray="1,5" points="8,-32.8 8,-230.8 426,-230.8 426,-32.8 8,-32.8"/>
</g>
<g id="clust6" class="cluster">
<title>cluster_UserModule_providers</title>
<polygon fill="none" stroke="black" points="286,-40.8 286,-92.8 418,-92.8 418,-40.8 286,-40.8"/>
</g>
<g id="clust4" class="cluster">
<title>cluster_UserModule_exports</title>
<polygon fill="none" stroke="black" points="152,-170.8 152,-222.8 256,-222.8 256,-170.8 152,-170.8"/>
</g>
<g id="clust3" class="cluster">
<title>cluster_UserModule_imports</title>
<polygon fill="none" stroke="black" points="16,-40.8 16,-92.8 278,-92.8 278,-40.8 16,-40.8"/>
</g>
<!-- TransactionsModule -->
<g id="node1" class="node">
<title>TransactionsModule</title>
<polygon fill="#8dd3c7" stroke="black" points="269.58,-84.8 266.58,-88.8 245.58,-88.8 242.58,-84.8 138.42,-84.8 138.42,-48.8 269.58,-48.8 269.58,-84.8"/>
<text text-anchor="middle" x="204" y="-62.6" font-family="Times,serif" font-size="14.00">TransactionsModule</text>
</g>
<!-- UserModule -->
<g id="node3" class="node">
<title>UserModule</title>
<polygon fill="#8dd3c7" stroke="black" points="246.98,-149.8 243.98,-153.8 222.98,-153.8 219.98,-149.8 161.02,-149.8 161.02,-113.8 246.98,-113.8 246.98,-149.8"/>
<text text-anchor="middle" x="204" y="-127.6" font-family="Times,serif" font-size="14.00">UserModule</text>
</g>
<!-- TransactionsModule&#45;&gt;UserModule -->
<g id="edge1" class="edge">
<title>TransactionsModule&#45;&gt;UserModule</title>
<path fill="none" stroke="black" d="M204,-84.91C204,-84.91 204,-103.79 204,-103.79"/>
<polygon fill="black" stroke="black" points="200.5,-103.79 204,-113.79 207.5,-103.79 200.5,-103.79"/>
</g>
<!-- WalletModule -->
<g id="node2" class="node">
<title>WalletModule</title>
<polygon fill="#8dd3c7" stroke="black" points="120.37,-84.8 117.37,-88.8 96.37,-88.8 93.37,-84.8 23.63,-84.8 23.63,-48.8 120.37,-48.8 120.37,-84.8"/>
<text text-anchor="middle" x="72" y="-62.6" font-family="Times,serif" font-size="14.00">WalletModule</text>
</g>
<!-- WalletModule&#45;&gt;UserModule -->
<g id="edge2" class="edge">
<title>WalletModule&#45;&gt;UserModule</title>
<path fill="none" stroke="black" d="M72,-84.91C72,-104.14 72,-131.8 72,-131.8 72,-131.8 150.78,-131.8 150.78,-131.8"/>
<polygon fill="black" stroke="black" points="150.78,-135.3 160.78,-131.8 150.78,-128.3 150.78,-135.3"/>
</g>
<!-- UserService  -->
<g id="node4" class="node">
<title>UserService </title>
<polygon fill="#fb8072" stroke="black" points="247.9,-214.8 160.1,-214.8 160.1,-178.8 247.9,-178.8 247.9,-214.8"/>
<text text-anchor="middle" x="204" y="-192.6" font-family="Times,serif" font-size="14.00">UserService </text>
</g>
<!-- UserModule&#45;&gt;UserService  -->
<g id="edge3" class="edge">
<title>UserModule&#45;&gt;UserService </title>
<path fill="none" stroke="black" stroke-dasharray="5,2" d="M204,-149.91C204,-149.91 204,-168.79 204,-168.79"/>
<polygon fill="black" stroke="black" points="200.5,-168.79 204,-178.79 207.5,-168.79 200.5,-168.79"/>
</g>
<!-- UserService -->
<g id="node5" class="node">
<title>UserService</title>
<ellipse fill="#fdb462" stroke="black" cx="352" cy="-66.8" rx="58.44" ry="18"/>
<text text-anchor="middle" x="352" y="-62.6" font-family="Times,serif" font-size="14.00">UserService</text>
</g>
<!-- UserService&#45;&gt;UserModule -->
<g id="edge4" class="edge">
<title>UserService&#45;&gt;UserModule</title>
<path fill="none" stroke="black" d="M352,-84.91C352,-104.14 352,-131.8 352,-131.8 352,-131.8 257.21,-131.8 257.21,-131.8"/>
<polygon fill="black" stroke="black" points="257.21,-128.3 247.21,-131.8 257.21,-135.3 257.21,-128.3"/>
</g>
</g>
</svg>
