<?xml version="1.0" encoding="UTF-8" standalone="no"?>
<!DOCTYPE svg PUBLIC "-//W3C//DTD SVG 1.1//EN"
 "http://www.w3.org/Graphics/SVG/1.1/DTD/svg11.dtd">
<!-- Generated by graphviz version 2.47.3 (20210619.1520)
 -->
<!-- Title: dependencies Pages: 1 -->
<svg width="463pt" height="174pt"
 viewBox="0.00 0.00 463.00 173.80" xmlns="http://www.w3.org/2000/svg" xmlns:xlink="http://www.w3.org/1999/xlink">
<g id="graph0" class="graph" transform="scale(1 1) rotate(0) translate(4 169.8)">
<title>dependencies</title>
<polygon fill="white" stroke="transparent" points="-4,4 -4,-169.8 459,-169.8 459,4 -4,4"/>
<text text-anchor="middle" x="227.5" y="-8.2" font-family="sans-serif" font-size="14.00">dependencies</text>
<g id="clust1" class="cluster">
<title>cluster_AdminModule</title>
<polygon fill="none" stroke="black" stroke-dasharray="1,5" points="8,-32.8 8,-157.8 447,-157.8 447,-32.8 8,-32.8"/>
</g>
<g id="clust3" class="cluster">
<title>cluster_AdminModule_imports</title>
<polygon fill="none" stroke="black" points="174,-40.8 174,-92.8 439,-92.8 439,-40.8 174,-40.8"/>
</g>
<g id="clust6" class="cluster">
<title>cluster_AdminModule_providers</title>
<polygon fill="none" stroke="black" points="16,-40.8 16,-92.8 166,-92.8 166,-40.8 16,-40.8"/>
</g>
<!-- FlutterwaveModule -->
<g id="node1" class="node">
<title>FlutterwaveModule</title>
<polygon fill="#8dd3c7" stroke="black" points="431.42,-84.8 428.42,-88.8 407.42,-88.8 404.42,-84.8 304.58,-84.8 304.58,-48.8 431.42,-48.8 431.42,-84.8"/>
<text text-anchor="middle" x="368" y="-62.6" font-family="Times,serif" font-size="14.00">FlutterwaveModule</text>
</g>
<!-- AdminModule -->
<g id="node3" class="node">
<title>AdminModule</title>
<polygon fill="#8dd3c7" stroke="black" points="283.44,-149.8 280.44,-153.8 259.44,-153.8 256.44,-149.8 184.56,-149.8 184.56,-113.8 283.44,-113.8 283.44,-149.8"/>
<text text-anchor="middle" x="234" y="-127.6" font-family="Times,serif" font-size="14.00">AdminModule</text>
</g>
<!-- FlutterwaveModule&#45;&gt;AdminModule -->
<g id="edge1" class="edge">
<title>FlutterwaveModule&#45;&gt;AdminModule</title>
<path fill="none" stroke="black" d="M368,-84.91C368,-104.14 368,-131.8 368,-131.8 368,-131.8 293.52,-131.8 293.52,-131.8"/>
<polygon fill="black" stroke="black" points="293.52,-128.3 283.52,-131.8 293.52,-135.3 293.52,-128.3"/>
</g>
<!-- SettingsModule -->
<g id="node2" class="node">
<title>SettingsModule</title>
<polygon fill="#8dd3c7" stroke="black" points="286.16,-84.8 283.16,-88.8 262.16,-88.8 259.16,-84.8 181.84,-84.8 181.84,-48.8 286.16,-48.8 286.16,-84.8"/>
<text text-anchor="middle" x="234" y="-62.6" font-family="Times,serif" font-size="14.00">SettingsModule</text>
</g>
<!-- SettingsModule&#45;&gt;AdminModule -->
<g id="edge2" class="edge">
<title>SettingsModule&#45;&gt;AdminModule</title>
<path fill="none" stroke="black" d="M234,-84.91C234,-84.91 234,-103.79 234,-103.79"/>
<polygon fill="black" stroke="black" points="230.5,-103.79 234,-113.79 237.5,-103.79 230.5,-103.79"/>
</g>
<!-- AdminService -->
<g id="node4" class="node">
<title>AdminService</title>
<ellipse fill="#fdb462" stroke="black" cx="91" cy="-66.8" rx="66.63" ry="18"/>
<text text-anchor="middle" x="91" y="-62.6" font-family="Times,serif" font-size="14.00">AdminService</text>
</g>
<!-- AdminService&#45;&gt;AdminModule -->
<g id="edge3" class="edge">
<title>AdminService&#45;&gt;AdminModule</title>
<path fill="none" stroke="black" d="M91,-84.91C91,-104.14 91,-131.8 91,-131.8 91,-131.8 174.39,-131.8 174.39,-131.8"/>
<polygon fill="black" stroke="black" points="174.39,-135.3 184.39,-131.8 174.39,-128.3 174.39,-135.3"/>
</g>
</g>
</svg>
