<?xml version="1.0" encoding="UTF-8" standalone="no"?>
<!DOCTYPE svg PUBLIC "-//W3C//DTD SVG 1.1//EN"
 "http://www.w3.org/Graphics/SVG/1.1/DTD/svg11.dtd">
<!-- Generated by graphviz version 2.47.3 (20210619.1520)
 -->
<!-- Title: dependencies Pages: 1 -->
<svg width="352pt" height="174pt"
 viewBox="0.00 0.00 352.00 173.80" xmlns="http://www.w3.org/2000/svg" xmlns:xlink="http://www.w3.org/1999/xlink">
<g id="graph0" class="graph" transform="scale(1 1) rotate(0) translate(4 169.8)">
<title>dependencies</title>
<polygon fill="white" stroke="transparent" points="-4,4 -4,-169.8 348,-169.8 348,4 -4,4"/>
<text text-anchor="middle" x="172" y="-8.2" font-family="sans-serif" font-size="14.00">dependencies</text>
<g id="clust1" class="cluster">
<title>cluster_AccountModule</title>
<polygon fill="none" stroke="black" stroke-dasharray="1,5" points="8,-32.8 8,-157.8 336,-157.8 336,-32.8 8,-32.8"/>
</g>
<g id="clust3" class="cluster">
<title>cluster_AccountModule_imports</title>
<polygon fill="none" stroke="black" points="186,-40.8 186,-92.8 328,-92.8 328,-40.8 186,-40.8"/>
</g>
<g id="clust6" class="cluster">
<title>cluster_AccountModule_providers</title>
<polygon fill="none" stroke="black" points="16,-40.8 16,-92.8 178,-92.8 178,-40.8 16,-40.8"/>
</g>
<!-- FlutterwaveModule -->
<g id="node1" class="node">
<title>FlutterwaveModule</title>
<polygon fill="#8dd3c7" stroke="black" points="320.42,-84.8 317.42,-88.8 296.42,-88.8 293.42,-84.8 193.58,-84.8 193.58,-48.8 320.42,-48.8 320.42,-84.8"/>
<text text-anchor="middle" x="257" y="-62.6" font-family="Times,serif" font-size="14.00">FlutterwaveModule</text>
</g>
<!-- AccountModule -->
<g id="node2" class="node">
<title>AccountModule</title>
<polygon fill="#8dd3c7" stroke="black" points="230.48,-149.8 227.48,-153.8 206.48,-153.8 203.48,-149.8 123.52,-149.8 123.52,-113.8 230.48,-113.8 230.48,-149.8"/>
<text text-anchor="middle" x="177" y="-127.6" font-family="Times,serif" font-size="14.00">AccountModule</text>
</g>
<!-- FlutterwaveModule&#45;&gt;AccountModule -->
<g id="edge1" class="edge">
<title>FlutterwaveModule&#45;&gt;AccountModule</title>
<path fill="none" stroke="black" d="M212.14,-84.91C212.14,-84.91 212.14,-103.79 212.14,-103.79"/>
<polygon fill="black" stroke="black" points="208.64,-103.79 212.14,-113.79 215.64,-103.79 208.64,-103.79"/>
</g>
<!-- AccountService -->
<g id="node3" class="node">
<title>AccountService</title>
<ellipse fill="#fdb462" stroke="black" cx="97" cy="-66.8" rx="72.91" ry="18"/>
<text text-anchor="middle" x="97" y="-62.6" font-family="Times,serif" font-size="14.00">AccountService</text>
</g>
<!-- AccountService&#45;&gt;AccountModule -->
<g id="edge2" class="edge">
<title>AccountService&#45;&gt;AccountModule</title>
<path fill="none" stroke="black" d="M146.61,-80.27C146.61,-80.27 146.61,-103.66 146.61,-103.66"/>
<polygon fill="black" stroke="black" points="143.11,-103.66 146.61,-113.66 150.11,-103.66 143.11,-103.66"/>
</g>
</g>
</svg>
