<?xml version="1.0" encoding="UTF-8" standalone="no"?>
<!DOCTYPE svg PUBLIC "-//W3C//DTD SVG 1.1//EN"
 "http://www.w3.org/Graphics/SVG/1.1/DTD/svg11.dtd">
<!-- Generated by graphviz version 2.47.3 (20210619.1520)
 -->
<!-- Title: dependencies Pages: 1 -->
<svg width="461pt" height="174pt"
 viewBox="0.00 0.00 461.00 173.80" xmlns="http://www.w3.org/2000/svg" xmlns:xlink="http://www.w3.org/1999/xlink">
<g id="graph0" class="graph" transform="scale(1 1) rotate(0) translate(4 169.8)">
<title>dependencies</title>
<polygon fill="white" stroke="transparent" points="-4,4 -4,-169.8 457,-169.8 457,4 -4,4"/>
<text text-anchor="middle" x="226.5" y="-8.2" font-family="sans-serif" font-size="14.00">dependencies</text>
<g id="clust1" class="cluster">
<title>cluster_AirtimeModule</title>
<polygon fill="none" stroke="black" stroke-dasharray="1,5" points="8,-32.8 8,-157.8 445,-157.8 445,-32.8 8,-32.8"/>
</g>
<g id="clust3" class="cluster">
<title>cluster_AirtimeModule_imports</title>
<polygon fill="none" stroke="black" points="180,-40.8 180,-92.8 437,-92.8 437,-40.8 180,-40.8"/>
</g>
<g id="clust6" class="cluster">
<title>cluster_AirtimeModule_providers</title>
<polygon fill="none" stroke="black" points="16,-40.8 16,-92.8 172,-92.8 172,-40.8 16,-40.8"/>
</g>
<!-- FlutterwaveModule -->
<g id="node1" class="node">
<title>FlutterwaveModule</title>
<polygon fill="#8dd3c7" stroke="black" points="429.42,-84.8 426.42,-88.8 405.42,-88.8 402.42,-84.8 302.58,-84.8 302.58,-48.8 429.42,-48.8 429.42,-84.8"/>
<text text-anchor="middle" x="366" y="-62.6" font-family="Times,serif" font-size="14.00">FlutterwaveModule</text>
</g>
<!-- AirtimeModule -->
<g id="node3" class="node">
<title>AirtimeModule</title>
<polygon fill="#8dd3c7" stroke="black" points="287.59,-149.8 284.59,-153.8 263.59,-153.8 260.59,-149.8 184.41,-149.8 184.41,-113.8 287.59,-113.8 287.59,-149.8"/>
<text text-anchor="middle" x="236" y="-127.6" font-family="Times,serif" font-size="14.00">AirtimeModule</text>
</g>
<!-- FlutterwaveModule&#45;&gt;AirtimeModule -->
<g id="edge1" class="edge">
<title>FlutterwaveModule&#45;&gt;AirtimeModule</title>
<path fill="none" stroke="black" d="M366,-84.91C366,-104.14 366,-131.8 366,-131.8 366,-131.8 297.75,-131.8 297.75,-131.8"/>
<polygon fill="black" stroke="black" points="297.75,-128.3 287.75,-131.8 297.75,-135.3 297.75,-128.3"/>
</g>
<!-- WalletModule -->
<g id="node2" class="node">
<title>WalletModule</title>
<polygon fill="#8dd3c7" stroke="black" points="284.37,-84.8 281.37,-88.8 260.37,-88.8 257.37,-84.8 187.63,-84.8 187.63,-48.8 284.37,-48.8 284.37,-84.8"/>
<text text-anchor="middle" x="236" y="-62.6" font-family="Times,serif" font-size="14.00">WalletModule</text>
</g>
<!-- WalletModule&#45;&gt;AirtimeModule -->
<g id="edge2" class="edge">
<title>WalletModule&#45;&gt;AirtimeModule</title>
<path fill="none" stroke="black" d="M236,-84.91C236,-84.91 236,-103.79 236,-103.79"/>
<polygon fill="black" stroke="black" points="232.5,-103.79 236,-113.79 239.5,-103.79 232.5,-103.79"/>
</g>
<!-- AirtimeService -->
<g id="node4" class="node">
<title>AirtimeService</title>
<ellipse fill="#fdb462" stroke="black" cx="94" cy="-66.8" rx="70.06" ry="18"/>
<text text-anchor="middle" x="94" y="-62.6" font-family="Times,serif" font-size="14.00">AirtimeService</text>
</g>
<!-- AirtimeService&#45;&gt;AirtimeModule -->
<g id="edge3" class="edge">
<title>AirtimeService&#45;&gt;AirtimeModule</title>
<path fill="none" stroke="black" d="M94,-84.91C94,-104.14 94,-131.8 94,-131.8 94,-131.8 174.33,-131.8 174.33,-131.8"/>
<polygon fill="black" stroke="black" points="174.33,-135.3 184.33,-131.8 174.33,-128.3 174.33,-135.3"/>
</g>
</g>
</svg>
