<?xml version="1.0" encoding="UTF-8" standalone="no"?>
<!DOCTYPE svg PUBLIC "-//W3C//DTD SVG 1.1//EN"
 "http://www.w3.org/Graphics/SVG/1.1/DTD/svg11.dtd">
<!-- Generated by graphviz version 2.47.3 (20210619.1520)
 -->
<!-- Title: dependencies Pages: 1 -->
<svg width="4335pt" height="337pt"
 viewBox="0.00 0.00 4335.00 336.80" xmlns="http://www.w3.org/2000/svg" xmlns:xlink="http://www.w3.org/1999/xlink">
<g id="graph0" class="graph" transform="scale(1 1) rotate(0) translate(4 332.8)">
<title>dependencies</title>
<polygon fill="white" stroke="transparent" points="-4,4 -4,-332.8 4331,-332.8 4331,4 -4,4"/>
<text text-anchor="middle" x="2163.5" y="-8.2" font-family="sans-serif" font-size="14.00">dependencies</text>
<g id="clust1" class="cluster">
<title>cluster_AccountModule</title>
<polygon fill="none" stroke="black" stroke-dasharray="1,5" points="2519,-108.8 2519,-236.8 2847,-236.8 2847,-108.8 2519,-108.8"/>
</g>
<g id="clust3" class="cluster">
<title>cluster_AccountModule_imports</title>
<polygon fill="none" stroke="black" points="2697,-116.8 2697,-168.8 2839,-168.8 2839,-116.8 2697,-116.8"/>
</g>
<g id="clust6" class="cluster">
<title>cluster_AccountModule_providers</title>
<polygon fill="none" stroke="black" points="2527,-116.8 2527,-168.8 2689,-168.8 2689,-116.8 2527,-116.8"/>
</g>
<g id="clust7" class="cluster">
<title>cluster_AdminModule</title>
<polygon fill="none" stroke="black" stroke-dasharray="1,5" points="3247,-108.8 3247,-236.8 3541,-236.8 3541,-108.8 3247,-108.8"/>
</g>
<g id="clust9" class="cluster">
<title>cluster_AdminModule_imports</title>
<polygon fill="none" stroke="black" points="3413,-116.8 3413,-168.8 3533,-168.8 3533,-116.8 3413,-116.8"/>
</g>
<g id="clust12" class="cluster">
<title>cluster_AdminModule_providers</title>
<polygon fill="none" stroke="black" points="3255,-116.8 3255,-168.8 3405,-168.8 3405,-116.8 3255,-116.8"/>
</g>
<g id="clust13" class="cluster">
<title>cluster_AirtimeModule</title>
<polygon fill="none" stroke="black" stroke-dasharray="1,5" points="2219,-108.8 2219,-236.8 2511,-236.8 2511,-108.8 2219,-108.8"/>
</g>
<g id="clust15" class="cluster">
<title>cluster_AirtimeModule_imports</title>
<polygon fill="none" stroke="black" points="2227,-116.8 2227,-168.8 2339,-168.8 2339,-116.8 2227,-116.8"/>
</g>
<g id="clust18" class="cluster">
<title>cluster_AirtimeModule_providers</title>
<polygon fill="none" stroke="black" points="2347,-116.8 2347,-168.8 2503,-168.8 2503,-116.8 2347,-116.8"/>
</g>
<g id="clust19" class="cluster">
<title>cluster_AppModule</title>
<polygon fill="none" stroke="black" stroke-dasharray="1,5" points="276,-108.8 276,-320.8 1917,-320.8 1917,-108.8 276,-108.8"/>
</g>
<g id="clust21" class="cluster">
<title>cluster_AppModule_imports</title>
<polygon fill="none" stroke="black" points="284,-116.8 284,-312.8 1817,-312.8 1817,-116.8 284,-116.8"/>
</g>
<g id="clust25" class="cluster">
<title>cluster_AuthModule</title>
<polygon fill="none" stroke="black" stroke-dasharray="1,5" points="3549,-176.8 3549,-244.8 3979,-244.8 3979,-176.8 3549,-176.8"/>
</g>
<g id="clust30" class="cluster">
<title>cluster_AuthModule_providers</title>
<polygon fill="none" stroke="black" points="3557,-184.8 3557,-236.8 3971,-236.8 3971,-184.8 3557,-184.8"/>
</g>
<g id="clust31" class="cluster">
<title>cluster_BankModule</title>
<polygon fill="none" stroke="black" stroke-dasharray="1,5" points="529,-32.8 529,-100.8 681,-100.8 681,-32.8 529,-32.8"/>
</g>
<g id="clust36" class="cluster">
<title>cluster_BankModule_providers</title>
<polygon fill="none" stroke="black" points="537,-40.8 537,-92.8 673,-92.8 673,-40.8 537,-40.8"/>
</g>
<g id="clust43" class="cluster">
<title>cluster_ElectricitybillModule</title>
<polygon fill="none" stroke="black" stroke-dasharray="1,5" points="689,-32.8 689,-100.8 907,-100.8 907,-32.8 689,-32.8"/>
</g>
<g id="clust48" class="cluster">
<title>cluster_ElectricitybillModule_providers</title>
<polygon fill="none" stroke="black" points="697,-40.8 697,-92.8 899,-92.8 899,-40.8 697,-40.8"/>
</g>
<g id="clust49" class="cluster">
<title>cluster_FlutterwaveModule</title>
<polygon fill="none" stroke="black" stroke-dasharray="1,5" points="2855,-176.8 2855,-244.8 3211,-244.8 3211,-176.8 2855,-176.8"/>
</g>
<g id="clust52" class="cluster">
<title>cluster_FlutterwaveModule_exports</title>
<polygon fill="none" stroke="black" points="3059,-184.8 3059,-236.8 3203,-236.8 3203,-184.8 3059,-184.8"/>
</g>
<g id="clust54" class="cluster">
<title>cluster_FlutterwaveModule_providers</title>
<polygon fill="none" stroke="black" points="2863,-184.8 2863,-236.8 3051,-236.8 3051,-184.8 2863,-184.8"/>
</g>
<g id="clust61" class="cluster">
<title>cluster_LogModule</title>
<polygon fill="none" stroke="black" stroke-dasharray="1,5" points="93,-32.8 93,-100.8 521,-100.8 521,-32.8 93,-32.8"/>
</g>
<g id="clust64" class="cluster">
<title>cluster_LogModule_exports</title>
<polygon fill="none" stroke="black" points="393,-40.8 393,-92.8 513,-92.8 513,-40.8 393,-40.8"/>
</g>
<g id="clust66" class="cluster">
<title>cluster_LogModule_providers</title>
<polygon fill="none" stroke="black" points="101,-40.8 101,-92.8 385,-92.8 385,-40.8 101,-40.8"/>
</g>
<g id="clust67" class="cluster">
<title>cluster_MobiledataModule</title>
<polygon fill="none" stroke="black" stroke-dasharray="1,5" points="915,-32.8 915,-100.8 1115,-100.8 1115,-32.8 915,-32.8"/>
</g>
<g id="clust72" class="cluster">
<title>cluster_MobiledataModule_providers</title>
<polygon fill="none" stroke="black" points="923,-40.8 923,-92.8 1107,-92.8 1107,-40.8 923,-40.8"/>
</g>
<g id="clust73" class="cluster">
<title>cluster_MonnifyModule</title>
<polygon fill="none" stroke="black" stroke-dasharray="1,5" points="1123,-32.8 1123,-100.8 1303,-100.8 1303,-32.8 1123,-32.8"/>
</g>
<g id="clust78" class="cluster">
<title>cluster_MonnifyModule_providers</title>
<polygon fill="none" stroke="black" points="1131,-40.8 1131,-92.8 1295,-92.8 1295,-40.8 1131,-40.8"/>
</g>
<g id="clust79" class="cluster">
<title>cluster_SettingsModule</title>
<polygon fill="none" stroke="black" stroke-dasharray="1,5" points="4015,-176.8 4015,-244.8 4319,-244.8 4319,-176.8 4015,-176.8"/>
</g>
<g id="clust82" class="cluster">
<title>cluster_SettingsModule_exports</title>
<polygon fill="none" stroke="black" points="4189,-184.8 4189,-236.8 4311,-236.8 4311,-184.8 4189,-184.8"/>
</g>
<g id="clust84" class="cluster">
<title>cluster_SettingsModule_providers</title>
<polygon fill="none" stroke="black" points="4023,-184.8 4023,-236.8 4181,-236.8 4181,-184.8 4023,-184.8"/>
</g>
<g id="clust85" class="cluster">
<title>cluster_SmsModule</title>
<polygon fill="none" stroke="black" stroke-dasharray="1,5" points="12,-176.8 12,-244.8 268,-244.8 268,-176.8 12,-176.8"/>
</g>
<g id="clust88" class="cluster">
<title>cluster_SmsModule_exports</title>
<polygon fill="none" stroke="black" points="158,-184.8 158,-236.8 260,-236.8 260,-184.8 158,-184.8"/>
</g>
<g id="clust90" class="cluster">
<title>cluster_SmsModule_providers</title>
<polygon fill="none" stroke="black" points="20,-184.8 20,-236.8 150,-236.8 150,-184.8 20,-184.8"/>
</g>
<g id="clust91" class="cluster">
<title>cluster_TransactionsModule</title>
<polygon fill="none" stroke="black" stroke-dasharray="1,5" points="1311,-32.8 1311,-100.8 1521,-100.8 1521,-32.8 1311,-32.8"/>
</g>
<g id="clust96" class="cluster">
<title>cluster_TransactionsModule_providers</title>
<polygon fill="none" stroke="black" points="1319,-40.8 1319,-92.8 1513,-92.8 1513,-40.8 1319,-40.8"/>
</g>
<g id="clust97" class="cluster">
<title>cluster_TransfersModule</title>
<polygon fill="none" stroke="black" stroke-dasharray="1,5" points="1529,-32.8 1529,-100.8 1713,-100.8 1713,-32.8 1529,-32.8"/>
</g>
<g id="clust102" class="cluster">
<title>cluster_TransfersModule_providers</title>
<polygon fill="none" stroke="black" points="1537,-40.8 1537,-92.8 1705,-92.8 1705,-40.8 1537,-40.8"/>
</g>
<g id="clust103" class="cluster">
<title>cluster_TvsubscriptionModule</title>
<polygon fill="none" stroke="black" stroke-dasharray="1,5" points="1721,-32.8 1721,-100.8 1949,-100.8 1949,-32.8 1721,-32.8"/>
</g>
<g id="clust108" class="cluster">
<title>cluster_TvsubscriptionModule_providers</title>
<polygon fill="none" stroke="black" points="1729,-40.8 1729,-92.8 1941,-92.8 1941,-40.8 1729,-40.8"/>
</g>
<g id="clust109" class="cluster">
<title>cluster_TwillioModule</title>
<polygon fill="none" stroke="black" stroke-dasharray="1,5" points="1957,-32.8 1957,-100.8 2125,-100.8 2125,-32.8 1957,-32.8"/>
</g>
<g id="clust114" class="cluster">
<title>cluster_TwillioModule_providers</title>
<polygon fill="none" stroke="black" points="1965,-40.8 1965,-92.8 2117,-92.8 2117,-40.8 1965,-40.8"/>
</g>
<g id="clust115" class="cluster">
<title>cluster_UserModule</title>
<polygon fill="none" stroke="black" stroke-dasharray="1,5" points="8,-252.8 8,-320.8 268,-320.8 268,-252.8 8,-252.8"/>
</g>
<g id="clust118" class="cluster">
<title>cluster_UserModule_exports</title>
<polygon fill="none" stroke="black" points="156,-260.8 156,-312.8 260,-312.8 260,-260.8 156,-260.8"/>
</g>
<g id="clust120" class="cluster">
<title>cluster_UserModule_providers</title>
<polygon fill="none" stroke="black" points="16,-260.8 16,-312.8 148,-312.8 148,-260.8 16,-260.8"/>
</g>
<g id="clust121" class="cluster">
<title>cluster_WalletModule</title>
<polygon fill="none" stroke="black" stroke-dasharray="1,5" points="1925,-176.8 1925,-244.8 2211,-244.8 2211,-176.8 1925,-176.8"/>
</g>
<g id="clust124" class="cluster">
<title>cluster_WalletModule_exports</title>
<polygon fill="none" stroke="black" points="2089,-184.8 2089,-236.8 2203,-236.8 2203,-184.8 2089,-184.8"/>
</g>
<g id="clust126" class="cluster">
<title>cluster_WalletModule_providers</title>
<polygon fill="none" stroke="black" points="1933,-184.8 1933,-236.8 2081,-236.8 2081,-184.8 1933,-184.8"/>
</g>
<!-- FlutterwaveModule -->
<g id="node1" class="node">
<title>FlutterwaveModule</title>
<polygon fill="#8dd3c7" stroke="black" points="2831.42,-160.8 2828.42,-164.8 2807.42,-164.8 2804.42,-160.8 2704.58,-160.8 2704.58,-124.8 2831.42,-124.8 2831.42,-160.8"/>
<text text-anchor="middle" x="2768" y="-138.6" font-family="Times,serif" font-size="14.00">FlutterwaveModule</text>
</g>
<!-- AccountModule -->
<g id="node2" class="node">
<title>AccountModule</title>
<polygon fill="#8dd3c7" stroke="black" points="2661.48,-228.8 2658.48,-232.8 2637.48,-232.8 2634.48,-228.8 2554.52,-228.8 2554.52,-192.8 2661.48,-192.8 2661.48,-228.8"/>
<text text-anchor="middle" x="2608" y="-206.6" font-family="Times,serif" font-size="14.00">AccountModule</text>
</g>
<!-- FlutterwaveModule&#45;&gt;AccountModule -->
<g id="edge1" class="edge">
<title>FlutterwaveModule&#45;&gt;AccountModule</title>
<path fill="none" stroke="black" d="M2755.36,-161.09C2755.36,-183.01 2755.36,-216.8 2755.36,-216.8 2755.36,-216.8 2671.62,-216.8 2671.62,-216.8"/>
<polygon fill="black" stroke="black" points="2671.62,-213.3 2661.62,-216.8 2671.62,-220.3 2671.62,-213.3"/>
</g>
<!-- AdminModule -->
<g id="node5" class="node">
<title>AdminModule</title>
<polygon fill="#8dd3c7" stroke="black" points="3367.44,-228.8 3364.44,-232.8 3343.44,-232.8 3340.44,-228.8 3268.56,-228.8 3268.56,-192.8 3367.44,-192.8 3367.44,-228.8"/>
<text text-anchor="middle" x="3318" y="-206.6" font-family="Times,serif" font-size="14.00">AdminModule</text>
</g>
<!-- FlutterwaveModule&#45;&gt;AdminModule -->
<g id="edge3" class="edge">
<title>FlutterwaveModule&#45;&gt;AdminModule</title>
<path fill="none" stroke="black" d="M2831.64,-136.8C2958.15,-136.8 3229.18,-136.8 3229.18,-136.8 3229.18,-136.8 3229.18,-210.8 3229.18,-210.8 3229.18,-210.8 3258.65,-210.8 3258.65,-210.8"/>
<polygon fill="black" stroke="black" points="3258.65,-214.3 3268.65,-210.8 3258.65,-207.3 3258.65,-214.3"/>
</g>
<!-- AirtimeModule -->
<g id="node8" class="node">
<title>AirtimeModule</title>
<polygon fill="#8dd3c7" stroke="black" points="2405.59,-228.8 2402.59,-232.8 2381.59,-232.8 2378.59,-228.8 2302.41,-228.8 2302.41,-192.8 2405.59,-192.8 2405.59,-228.8"/>
<text text-anchor="middle" x="2354" y="-206.6" font-family="Times,serif" font-size="14.00">AirtimeModule</text>
</g>
<!-- FlutterwaveModule&#45;&gt;AirtimeModule -->
<g id="edge6" class="edge">
<title>FlutterwaveModule&#45;&gt;AirtimeModule</title>
<path fill="none" stroke="black" d="M2730.08,-160.88C2730.08,-162.65 2730.08,-163.8 2730.08,-163.8 2730.08,-163.8 2388.69,-163.8 2388.69,-163.8 2388.69,-163.8 2388.69,-182.76 2388.69,-182.76"/>
<polygon fill="black" stroke="black" points="2385.19,-182.76 2388.69,-192.76 2392.19,-182.76 2385.19,-182.76"/>
</g>
<!-- AppModule -->
<g id="node24" class="node">
<title>AppModule</title>
<polygon fill="#8dd3c7" stroke="black" points="1908.66,-304.8 1905.66,-308.8 1884.66,-308.8 1881.66,-304.8 1825.34,-304.8 1825.34,-268.8 1908.66,-268.8 1908.66,-304.8"/>
<text text-anchor="middle" x="1867" y="-282.6" font-family="Times,serif" font-size="14.00">AppModule</text>
</g>
<!-- FlutterwaveModule&#45;&gt;AppModule -->
<g id="edge16" class="edge">
<title>FlutterwaveModule&#45;&gt;AppModule</title>
<path fill="none" stroke="black" d="M2780.64,-160.83C2780.64,-200.08 2780.64,-289.8 2780.64,-289.8 2780.64,-289.8 1918.93,-289.8 1918.93,-289.8"/>
<polygon fill="black" stroke="black" points="1918.93,-286.3 1908.93,-289.8 1918.93,-293.3 1918.93,-286.3"/>
</g>
<!-- FlutterwaveService  -->
<g id="node30" class="node">
<title>FlutterwaveService </title>
<polygon fill="#fb8072" stroke="black" points="3195.34,-228.8 3066.66,-228.8 3066.66,-192.8 3195.34,-192.8 3195.34,-228.8"/>
<text text-anchor="middle" x="3131" y="-206.6" font-family="Times,serif" font-size="14.00">FlutterwaveService </text>
</g>
<!-- FlutterwaveModule&#45;&gt;FlutterwaveService  -->
<g id="edge35" class="edge">
<title>FlutterwaveModule&#45;&gt;FlutterwaveService </title>
<path fill="none" stroke="black" stroke-dasharray="5,2" d="M2831.23,-148.8C2935.23,-148.8 3131,-148.8 3131,-148.8 3131,-148.8 3131,-182.53 3131,-182.53"/>
<polygon fill="black" stroke="black" points="3127.5,-182.53 3131,-192.53 3134.5,-182.53 3127.5,-182.53"/>
</g>
<!-- AccountModule&#45;&gt;AppModule -->
<g id="edge9" class="edge">
<title>AccountModule&#45;&gt;AppModule</title>
<path fill="none" stroke="black" d="M2608,-229.09C2608,-251.01 2608,-284.8 2608,-284.8 2608,-284.8 1918.69,-284.8 1918.69,-284.8"/>
<polygon fill="black" stroke="black" points="1918.69,-281.3 1908.69,-284.8 1918.69,-288.3 1918.69,-281.3"/>
</g>
<!-- AccountService -->
<g id="node3" class="node">
<title>AccountService</title>
<ellipse fill="#fdb462" stroke="black" cx="2608" cy="-142.8" rx="72.91" ry="18"/>
<text text-anchor="middle" x="2608" y="-138.6" font-family="Times,serif" font-size="14.00">AccountService</text>
</g>
<!-- AccountService&#45;&gt;AccountModule -->
<g id="edge2" class="edge">
<title>AccountService&#45;&gt;AccountModule</title>
<path fill="none" stroke="black" d="M2608,-161.02C2608,-161.02 2608,-182.53 2608,-182.53"/>
<polygon fill="black" stroke="black" points="2604.5,-182.53 2608,-192.53 2611.5,-182.53 2604.5,-182.53"/>
</g>
<!-- SettingsModule -->
<g id="node4" class="node">
<title>SettingsModule</title>
<polygon fill="#8dd3c7" stroke="black" points="3525.16,-160.8 3522.16,-164.8 3501.16,-164.8 3498.16,-160.8 3420.84,-160.8 3420.84,-124.8 3525.16,-124.8 3525.16,-160.8"/>
<text text-anchor="middle" x="3473" y="-138.6" font-family="Times,serif" font-size="14.00">SettingsModule</text>
</g>
<!-- SettingsModule&#45;&gt;AdminModule -->
<g id="edge4" class="edge">
<title>SettingsModule&#45;&gt;AdminModule</title>
<path fill="none" stroke="black" d="M3455.56,-161.02C3455.56,-181.17 3455.56,-210.8 3455.56,-210.8 3455.56,-210.8 3377.27,-210.8 3377.27,-210.8"/>
<polygon fill="black" stroke="black" points="3377.27,-207.3 3367.27,-210.8 3377.27,-214.3 3377.27,-207.3"/>
</g>
<!-- SettingsModule&#45;&gt;AppModule -->
<g id="edge21" class="edge">
<title>SettingsModule&#45;&gt;AppModule</title>
<path fill="none" stroke="black" d="M3490.44,-160.81C3490.44,-202.05 3490.44,-299.8 3490.44,-299.8 3490.44,-299.8 1918.76,-299.8 1918.76,-299.8"/>
<polygon fill="black" stroke="black" points="1918.76,-296.3 1908.76,-299.8 1918.76,-303.3 1918.76,-296.3"/>
</g>
<!-- SettingsService  -->
<g id="node37" class="node">
<title>SettingsService </title>
<polygon fill="#fb8072" stroke="black" points="4303.09,-228.8 4196.91,-228.8 4196.91,-192.8 4303.09,-192.8 4303.09,-228.8"/>
<text text-anchor="middle" x="4250" y="-206.6" font-family="Times,serif" font-size="14.00">SettingsService </text>
</g>
<!-- SettingsModule&#45;&gt;SettingsService  -->
<g id="edge42" class="edge">
<title>SettingsModule&#45;&gt;SettingsService </title>
<path fill="none" stroke="black" stroke-dasharray="5,2" d="M3525.19,-136.8C3699.4,-136.8 4250,-136.8 4250,-136.8 4250,-136.8 4250,-182.51 4250,-182.51"/>
<polygon fill="black" stroke="black" points="4246.5,-182.51 4250,-192.51 4253.5,-182.51 4246.5,-182.51"/>
</g>
<!-- AdminModule&#45;&gt;AppModule -->
<g id="edge10" class="edge">
<title>AdminModule&#45;&gt;AppModule</title>
<path fill="none" stroke="black" d="M3318,-229.03C3318,-253.73 3318,-294.8 3318,-294.8 3318,-294.8 1918.86,-294.8 1918.86,-294.8"/>
<polygon fill="black" stroke="black" points="1918.86,-291.3 1908.86,-294.8 1918.86,-298.3 1918.86,-291.3"/>
</g>
<!-- AdminService -->
<g id="node6" class="node">
<title>AdminService</title>
<ellipse fill="#fdb462" stroke="black" cx="3330" cy="-142.8" rx="66.63" ry="18"/>
<text text-anchor="middle" x="3330" y="-138.6" font-family="Times,serif" font-size="14.00">AdminService</text>
</g>
<!-- AdminService&#45;&gt;AdminModule -->
<g id="edge5" class="edge">
<title>AdminService&#45;&gt;AdminModule</title>
<path fill="none" stroke="black" d="M3318,-160.67C3318,-160.67 3318,-182.34 3318,-182.34"/>
<polygon fill="black" stroke="black" points="3314.5,-182.34 3318,-192.34 3321.5,-182.34 3314.5,-182.34"/>
</g>
<!-- WalletModule -->
<g id="node7" class="node">
<title>WalletModule</title>
<polygon fill="#8dd3c7" stroke="black" points="2331.37,-160.8 2328.37,-164.8 2307.37,-164.8 2304.37,-160.8 2234.63,-160.8 2234.63,-124.8 2331.37,-124.8 2331.37,-160.8"/>
<text text-anchor="middle" x="2283" y="-138.6" font-family="Times,serif" font-size="14.00">WalletModule</text>
</g>
<!-- WalletModule&#45;&gt;AirtimeModule -->
<g id="edge7" class="edge">
<title>WalletModule&#45;&gt;AirtimeModule</title>
<path fill="none" stroke="black" d="M2316.94,-161.02C2316.94,-161.02 2316.94,-182.53 2316.94,-182.53"/>
<polygon fill="black" stroke="black" points="2313.44,-182.53 2316.94,-192.53 2320.44,-182.53 2313.44,-182.53"/>
</g>
<!-- UserModule -->
<g id="node23" class="node">
<title>UserModule</title>
<polygon fill="#8dd3c7" stroke="black" points="1415.98,-228.8 1412.98,-232.8 1391.98,-232.8 1388.98,-228.8 1330.02,-228.8 1330.02,-192.8 1415.98,-192.8 1415.98,-228.8"/>
<text text-anchor="middle" x="1373" y="-206.6" font-family="Times,serif" font-size="14.00">UserModule</text>
</g>
<!-- WalletModule&#45;&gt;UserModule -->
<g id="edge51" class="edge">
<title>WalletModule&#45;&gt;UserModule</title>
<path fill="none" stroke="black" d="M2234.6,-139.8C2117.93,-139.8 1830.75,-139.8 1830.75,-139.8 1830.75,-139.8 1830.75,-204.8 1830.75,-204.8 1830.75,-204.8 1426.06,-204.8 1426.06,-204.8"/>
<polygon fill="black" stroke="black" points="1426.06,-201.3 1416.06,-204.8 1426.06,-208.3 1426.06,-201.3"/>
</g>
<!-- WalletModule&#45;&gt;AppModule -->
<g id="edge28" class="edge">
<title>WalletModule&#45;&gt;AppModule</title>
<path fill="none" stroke="black" d="M2279.82,-160.88C2279.82,-197.03 2279.82,-274.8 2279.82,-274.8 2279.82,-274.8 1918.86,-274.8 1918.86,-274.8"/>
<polygon fill="black" stroke="black" points="1918.86,-271.3 1908.86,-274.8 1918.86,-278.3 1918.86,-271.3"/>
</g>
<!-- WalletService  -->
<g id="node47" class="node">
<title>WalletService </title>
<polygon fill="#fb8072" stroke="black" points="2195.29,-228.8 2096.71,-228.8 2096.71,-192.8 2195.29,-192.8 2195.29,-228.8"/>
<text text-anchor="middle" x="2146" y="-206.6" font-family="Times,serif" font-size="14.00">WalletService </text>
</g>
<!-- WalletModule&#45;&gt;WalletService  -->
<g id="edge54" class="edge">
<title>WalletModule&#45;&gt;WalletService </title>
<path fill="none" stroke="black" stroke-dasharray="5,2" d="M2257.2,-161.02C2257.2,-181.17 2257.2,-210.8 2257.2,-210.8 2257.2,-210.8 2205.42,-210.8 2205.42,-210.8"/>
<polygon fill="black" stroke="black" points="2205.42,-207.3 2195.42,-210.8 2205.42,-214.3 2205.42,-207.3"/>
</g>
<!-- AirtimeModule&#45;&gt;AppModule -->
<g id="edge11" class="edge">
<title>AirtimeModule&#45;&gt;AppModule</title>
<path fill="none" stroke="black" d="M2354,-228.93C2354,-249.37 2354,-279.8 2354,-279.8 2354,-279.8 1918.94,-279.8 1918.94,-279.8"/>
<polygon fill="black" stroke="black" points="1918.94,-276.3 1908.94,-279.8 1918.94,-283.3 1918.94,-276.3"/>
</g>
<!-- AirtimeService -->
<g id="node9" class="node">
<title>AirtimeService</title>
<ellipse fill="#fdb462" stroke="black" cx="2425" cy="-142.8" rx="70.06" ry="18"/>
<text text-anchor="middle" x="2425" y="-138.6" font-family="Times,serif" font-size="14.00">AirtimeService</text>
</g>
<!-- AirtimeService&#45;&gt;AirtimeModule -->
<g id="edge8" class="edge">
<title>AirtimeService&#45;&gt;AirtimeModule</title>
<path fill="none" stroke="black" d="M2371.83,-154.64C2371.83,-154.64 2371.83,-182.7 2371.83,-182.7"/>
<polygon fill="black" stroke="black" points="2368.33,-182.7 2371.83,-192.7 2375.33,-182.7 2368.33,-182.7"/>
</g>
<!-- AuthModule -->
<g id="node10" class="node">
<title>AuthModule</title>
<polygon fill="#8dd3c7" stroke="black" points="1806.55,-304.8 1803.55,-308.8 1782.55,-308.8 1779.55,-304.8 1719.45,-304.8 1719.45,-268.8 1806.55,-268.8 1806.55,-304.8"/>
<text text-anchor="middle" x="1763" y="-282.6" font-family="Times,serif" font-size="14.00">AuthModule</text>
</g>
<!-- AuthModule&#45;&gt;AppModule -->
<g id="edge12" class="edge">
<title>AuthModule&#45;&gt;AppModule</title>
<path fill="none" stroke="black" d="M1806.8,-286.8C1806.8,-286.8 1815.24,-286.8 1815.24,-286.8"/>
<polygon fill="black" stroke="black" points="1815.24,-290.3 1825.24,-286.8 1815.24,-283.3 1815.24,-290.3"/>
</g>
<!-- BankModule -->
<g id="node11" class="node">
<title>BankModule</title>
<polygon fill="#8dd3c7" stroke="black" points="711.6,-160.8 708.6,-164.8 687.6,-164.8 684.6,-160.8 622.4,-160.8 622.4,-124.8 711.6,-124.8 711.6,-160.8"/>
<text text-anchor="middle" x="667" y="-138.6" font-family="Times,serif" font-size="14.00">BankModule</text>
</g>
<!-- BankModule&#45;&gt;AppModule -->
<g id="edge13" class="edge">
<title>BankModule&#45;&gt;AppModule</title>
<path fill="none" stroke="black" d="M667,-160.9C667,-171.89 667,-183.8 667,-183.8 667,-183.8 1858.63,-183.8 1858.63,-183.8 1858.63,-183.8 1858.63,-258.39 1858.63,-258.39"/>
<polygon fill="black" stroke="black" points="1855.13,-258.39 1858.63,-268.39 1862.13,-258.39 1855.13,-258.39"/>
</g>
<!-- DatabaseModule -->
<g id="node12" class="node">
<title>DatabaseModule</title>
<polygon fill="#8dd3c7" stroke="black" points="504.35,-160.8 501.35,-164.8 480.35,-164.8 477.35,-160.8 393.65,-160.8 393.65,-124.8 504.35,-124.8 504.35,-160.8"/>
<text text-anchor="middle" x="449" y="-138.6" font-family="Times,serif" font-size="14.00">DatabaseModule</text>
</g>
<!-- DatabaseModule&#45;&gt;AppModule -->
<g id="edge14" class="edge">
<title>DatabaseModule&#45;&gt;AppModule</title>
<path fill="none" stroke="black" d="M449,-160.98C449,-173.84 449,-188.8 449,-188.8 449,-188.8 1847.48,-188.8 1847.48,-188.8 1847.48,-188.8 1847.48,-258.37 1847.48,-258.37"/>
<polygon fill="black" stroke="black" points="1843.98,-258.37 1847.48,-268.37 1850.98,-258.37 1843.98,-258.37"/>
</g>
<!-- ElectricitybillModule -->
<g id="node13" class="node">
<title>ElectricitybillModule</title>
<polygon fill="#8dd3c7" stroke="black" points="866.03,-160.8 863.03,-164.8 842.03,-164.8 839.03,-160.8 729.97,-160.8 729.97,-124.8 866.03,-124.8 866.03,-160.8"/>
<text text-anchor="middle" x="798" y="-138.6" font-family="Times,serif" font-size="14.00">ElectricitybillModule</text>
</g>
<!-- ElectricitybillModule&#45;&gt;AppModule -->
<g id="edge15" class="edge">
<title>ElectricitybillModule&#45;&gt;AppModule</title>
<path fill="none" stroke="black" d="M798,-160.91C798,-170.7 798,-180.8 798,-180.8 798,-180.8 1864.21,-180.8 1864.21,-180.8 1864.21,-180.8 1864.21,-258.34 1864.21,-258.34"/>
<polygon fill="black" stroke="black" points="1860.71,-258.34 1864.21,-268.34 1867.71,-258.34 1860.71,-258.34"/>
</g>
<!-- HealthModule -->
<g id="node14" class="node">
<title>HealthModule</title>
<polygon fill="#8dd3c7" stroke="black" points="981.37,-160.8 978.37,-164.8 957.37,-164.8 954.37,-160.8 884.63,-160.8 884.63,-124.8 981.37,-124.8 981.37,-160.8"/>
<text text-anchor="middle" x="933" y="-138.6" font-family="Times,serif" font-size="14.00">HealthModule</text>
</g>
<!-- HealthModule&#45;&gt;AppModule -->
<g id="edge17" class="edge">
<title>HealthModule&#45;&gt;AppModule</title>
<path fill="none" stroke="black" d="M933,-161.22C933,-170.08 933,-178.8 933,-178.8 933,-178.8 1869.79,-178.8 1869.79,-178.8 1869.79,-178.8 1869.79,-258.48 1869.79,-258.48"/>
<polygon fill="black" stroke="black" points="1866.29,-258.48 1869.79,-268.48 1873.29,-258.48 1866.29,-258.48"/>
</g>
<!-- LogModule -->
<g id="node15" class="node">
<title>LogModule</title>
<polygon fill="#8dd3c7" stroke="black" points="604.1,-160.8 601.1,-164.8 580.1,-164.8 577.1,-160.8 521.9,-160.8 521.9,-124.8 604.1,-124.8 604.1,-160.8"/>
<text text-anchor="middle" x="563" y="-138.6" font-family="Times,serif" font-size="14.00">LogModule</text>
</g>
<!-- LogModule&#45;&gt;AppModule -->
<g id="edge18" class="edge">
<title>LogModule&#45;&gt;AppModule</title>
<path fill="none" stroke="black" d="M563,-161.29C563,-172.94 563,-185.8 563,-185.8 563,-185.8 1853.06,-185.8 1853.06,-185.8 1853.06,-185.8 1853.06,-258.74 1853.06,-258.74"/>
<polygon fill="black" stroke="black" points="1849.56,-258.74 1853.06,-268.74 1856.56,-258.74 1849.56,-258.74"/>
</g>
<!-- CustomLogger  -->
<g id="node32" class="node">
<title>CustomLogger </title>
<polygon fill="#fb8072" stroke="black" points="504.99,-84.8 401.01,-84.8 401.01,-48.8 504.99,-48.8 504.99,-84.8"/>
<text text-anchor="middle" x="453" y="-62.6" font-family="Times,serif" font-size="14.00">CustomLogger </text>
</g>
<!-- LogModule&#45;&gt;CustomLogger  -->
<g id="edge37" class="edge">
<title>LogModule&#45;&gt;CustomLogger </title>
<path fill="none" stroke="black" stroke-dasharray="5,2" d="M538.96,-124.79C538.96,-102.31 538.96,-66.8 538.96,-66.8 538.96,-66.8 514.98,-66.8 514.98,-66.8"/>
<polygon fill="black" stroke="black" points="514.98,-63.3 504.98,-66.8 514.98,-70.3 514.98,-63.3"/>
</g>
<!-- MobiledataModule -->
<g id="node16" class="node">
<title>MobiledataModule</title>
<polygon fill="#8dd3c7" stroke="black" points="1122.81,-160.8 1119.81,-164.8 1098.81,-164.8 1095.81,-160.8 999.19,-160.8 999.19,-124.8 1122.81,-124.8 1122.81,-160.8"/>
<text text-anchor="middle" x="1061" y="-138.6" font-family="Times,serif" font-size="14.00">MobiledataModule</text>
</g>
<!-- MobiledataModule&#45;&gt;AppModule -->
<g id="edge19" class="edge">
<title>MobiledataModule&#45;&gt;AppModule</title>
<path fill="none" stroke="black" d="M1061,-160.84C1061,-168.55 1061,-175.8 1061,-175.8 1061,-175.8 1875.37,-175.8 1875.37,-175.8 1875.37,-175.8 1875.37,-258.47 1875.37,-258.47"/>
<polygon fill="black" stroke="black" points="1871.87,-258.47 1875.37,-268.47 1878.87,-258.47 1871.87,-258.47"/>
</g>
<!-- MonnifyModule -->
<g id="node17" class="node">
<title>MonnifyModule</title>
<polygon fill="#8dd3c7" stroke="black" points="1249.05,-160.8 1246.05,-164.8 1225.05,-164.8 1222.05,-160.8 1140.95,-160.8 1140.95,-124.8 1249.05,-124.8 1249.05,-160.8"/>
<text text-anchor="middle" x="1195" y="-138.6" font-family="Times,serif" font-size="14.00">MonnifyModule</text>
</g>
<!-- MonnifyModule&#45;&gt;AppModule -->
<g id="edge20" class="edge">
<title>MonnifyModule&#45;&gt;AppModule</title>
<path fill="none" stroke="black" d="M1195,-160.83C1195,-167.65 1195,-173.8 1195,-173.8 1195,-173.8 1880.94,-173.8 1880.94,-173.8 1880.94,-173.8 1880.94,-258.64 1880.94,-258.64"/>
<polygon fill="black" stroke="black" points="1877.44,-258.64 1880.94,-268.64 1884.44,-258.64 1877.44,-258.64"/>
</g>
<!-- SmsModule -->
<g id="node18" class="node">
<title>SmsModule</title>
<polygon fill="#8dd3c7" stroke="black" points="375.67,-160.8 372.67,-164.8 351.67,-164.8 348.67,-160.8 292.33,-160.8 292.33,-124.8 375.67,-124.8 375.67,-160.8"/>
<text text-anchor="middle" x="334" y="-138.6" font-family="Times,serif" font-size="14.00">SmsModule</text>
</g>
<!-- SmsModule&#45;&gt;AppModule -->
<g id="edge22" class="edge">
<title>SmsModule&#45;&gt;AppModule</title>
<path fill="none" stroke="black" d="M334,-160.95C334,-174.54 334,-190.8 334,-190.8 334,-190.8 1841.9,-190.8 1841.9,-190.8 1841.9,-190.8 1841.9,-258.74 1841.9,-258.74"/>
<polygon fill="black" stroke="black" points="1838.4,-258.74 1841.9,-268.74 1845.4,-258.74 1838.4,-258.74"/>
</g>
<!-- SmsService  -->
<g id="node39" class="node">
<title>SmsService </title>
<polygon fill="#fb8072" stroke="black" points="251.6,-228.8 166.4,-228.8 166.4,-192.8 251.6,-192.8 251.6,-228.8"/>
<text text-anchor="middle" x="209" y="-206.6" font-family="Times,serif" font-size="14.00">SmsService </text>
</g>
<!-- SmsModule&#45;&gt;SmsService  -->
<g id="edge44" class="edge">
<title>SmsModule&#45;&gt;SmsService </title>
<path fill="none" stroke="black" stroke-dasharray="5,2" d="M292.3,-148.8C269.32,-148.8 245.41,-148.8 245.41,-148.8 245.41,-148.8 245.41,-182.53 245.41,-182.53"/>
<polygon fill="black" stroke="black" points="241.91,-182.53 245.41,-192.53 248.91,-182.53 241.91,-182.53"/>
</g>
<!-- TransactionsModule -->
<g id="node19" class="node">
<title>TransactionsModule</title>
<polygon fill="#8dd3c7" stroke="black" points="1398.58,-160.8 1395.58,-164.8 1374.58,-164.8 1371.58,-160.8 1267.42,-160.8 1267.42,-124.8 1398.58,-124.8 1398.58,-160.8"/>
<text text-anchor="middle" x="1333" y="-138.6" font-family="Times,serif" font-size="14.00">TransactionsModule</text>
</g>
<!-- TransactionsModule&#45;&gt;UserModule -->
<g id="edge50" class="edge">
<title>TransactionsModule&#45;&gt;UserModule</title>
<path fill="none" stroke="black" d="M1352.85,-161.02C1352.85,-161.02 1352.85,-182.53 1352.85,-182.53"/>
<polygon fill="black" stroke="black" points="1349.35,-182.53 1352.85,-192.53 1356.35,-182.53 1349.35,-182.53"/>
</g>
<!-- TransactionsModule&#45;&gt;AppModule -->
<g id="edge23" class="edge">
<title>TransactionsModule&#45;&gt;AppModule</title>
<path fill="none" stroke="black" d="M1375.7,-161.01C1375.7,-166.35 1375.7,-170.8 1375.7,-170.8 1375.7,-170.8 1886.52,-170.8 1886.52,-170.8 1886.52,-170.8 1886.52,-258.68 1886.52,-258.68"/>
<polygon fill="black" stroke="black" points="1883.02,-258.67 1886.52,-268.68 1890.02,-258.68 1883.02,-258.67"/>
</g>
<!-- TransfersModule -->
<g id="node20" class="node">
<title>TransfersModule</title>
<polygon fill="#8dd3c7" stroke="black" points="1529.4,-160.8 1526.4,-164.8 1505.4,-164.8 1502.4,-160.8 1416.6,-160.8 1416.6,-124.8 1529.4,-124.8 1529.4,-160.8"/>
<text text-anchor="middle" x="1473" y="-138.6" font-family="Times,serif" font-size="14.00">TransfersModule</text>
</g>
<!-- TransfersModule&#45;&gt;AppModule -->
<g id="edge24" class="edge">
<title>TransfersModule&#45;&gt;AppModule</title>
<path fill="none" stroke="black" d="M1473,-160.86C1473,-165.29 1473,-168.8 1473,-168.8 1473,-168.8 1892.1,-168.8 1892.1,-168.8 1892.1,-168.8 1892.1,-258.62 1892.1,-258.62"/>
<polygon fill="black" stroke="black" points="1888.6,-258.62 1892.1,-268.62 1895.6,-258.62 1888.6,-258.62"/>
</g>
<!-- TvsubscriptionModule -->
<g id="node21" class="node">
<title>TvsubscriptionModule</title>
<polygon fill="#8dd3c7" stroke="black" points="1690.54,-160.8 1687.54,-164.8 1666.54,-164.8 1663.54,-160.8 1547.46,-160.8 1547.46,-124.8 1690.54,-124.8 1690.54,-160.8"/>
<text text-anchor="middle" x="1619" y="-138.6" font-family="Times,serif" font-size="14.00">TvsubscriptionModule</text>
</g>
<!-- TvsubscriptionModule&#45;&gt;AppModule -->
<g id="edge25" class="edge">
<title>TvsubscriptionModule&#45;&gt;AppModule</title>
<path fill="none" stroke="black" d="M1619,-160.92C1619,-163.77 1619,-165.8 1619,-165.8 1619,-165.8 1897.67,-165.8 1897.67,-165.8 1897.67,-165.8 1897.67,-258.69 1897.67,-258.69"/>
<polygon fill="black" stroke="black" points="1894.17,-258.69 1897.67,-268.69 1901.17,-258.69 1894.17,-258.69"/>
</g>
<!-- TwillioModule -->
<g id="node22" class="node">
<title>TwillioModule</title>
<polygon fill="#8dd3c7" stroke="black" points="1809.27,-160.8 1806.27,-164.8 1785.27,-164.8 1782.27,-160.8 1708.73,-160.8 1708.73,-124.8 1809.27,-124.8 1809.27,-160.8"/>
<text text-anchor="middle" x="1759" y="-138.6" font-family="Times,serif" font-size="14.00">TwillioModule</text>
</g>
<!-- TwillioModule&#45;&gt;AppModule -->
<g id="edge26" class="edge">
<title>TwillioModule&#45;&gt;AppModule</title>
<path fill="none" stroke="black" d="M1809.45,-153.8C1851.05,-153.8 1903.25,-153.8 1903.25,-153.8 1903.25,-153.8 1903.25,-258.59 1903.25,-258.59"/>
<polygon fill="black" stroke="black" points="1899.75,-258.59 1903.25,-268.59 1906.75,-258.59 1899.75,-258.59"/>
</g>
<!-- UserModule&#45;&gt;AuthModule -->
<g id="edge29" class="edge">
<title>UserModule&#45;&gt;AuthModule</title>
<path fill="none" stroke="black" d="M1394.49,-229C1394.49,-253.16 1394.49,-292.8 1394.49,-292.8 1394.49,-292.8 1709.28,-292.8 1709.28,-292.8"/>
<polygon fill="black" stroke="black" points="1709.28,-296.3 1719.28,-292.8 1709.28,-289.3 1709.28,-296.3"/>
</g>
<!-- UserModule&#45;&gt;AppModule -->
<g id="edge27" class="edge">
<title>UserModule&#45;&gt;AppModule</title>
<path fill="none" stroke="black" d="M1416.17,-216.8C1531.19,-216.8 1836.33,-216.8 1836.33,-216.8 1836.33,-216.8 1836.33,-258.77 1836.33,-258.77"/>
<polygon fill="black" stroke="black" points="1832.83,-258.77 1836.33,-268.77 1839.83,-258.77 1832.83,-258.77"/>
</g>
<!-- UserService  -->
<g id="node45" class="node">
<title>UserService </title>
<polygon fill="#fb8072" stroke="black" points="251.9,-304.8 164.1,-304.8 164.1,-268.8 251.9,-268.8 251.9,-304.8"/>
<text text-anchor="middle" x="208" y="-282.6" font-family="Times,serif" font-size="14.00">UserService </text>
</g>
<!-- UserModule&#45;&gt;UserService  -->
<g id="edge52" class="edge">
<title>UserModule&#45;&gt;UserService </title>
<path fill="none" stroke="black" stroke-dasharray="5,2" d="M1373,-228.83C1373,-249.57 1373,-280.8 1373,-280.8 1373,-280.8 262.25,-280.8 262.25,-280.8"/>
<polygon fill="black" stroke="black" points="262.25,-277.3 252.25,-280.8 262.25,-284.3 262.25,-277.3"/>
</g>
<!-- AuthService -->
<g id="node25" class="node">
<title>AuthService</title>
<ellipse fill="#fdb462" stroke="black" cx="3904" cy="-210.8" rx="59.11" ry="18"/>
<text text-anchor="middle" x="3904" y="-206.6" font-family="Times,serif" font-size="14.00">AuthService</text>
</g>
<!-- AuthService&#45;&gt;AuthModule -->
<g id="edge30" class="edge">
<title>AuthService&#45;&gt;AuthModule</title>
<path fill="none" stroke="black" d="M3904,-228.86C3904,-240.24 3904,-252.8 3904,-252.8 3904,-252.8 1784.89,-252.8 1784.89,-252.8 1784.89,-252.8 1784.89,-258.61 1784.89,-258.61"/>
<polygon fill="black" stroke="black" points="1781.39,-258.61 1784.89,-268.61 1788.39,-258.61 1781.39,-258.61"/>
</g>
<!-- JwtStrategy -->
<g id="node26" class="node">
<title>JwtStrategy</title>
<ellipse fill="#fdb462" stroke="black" cx="3770" cy="-210.8" rx="56.76" ry="18"/>
<text text-anchor="middle" x="3770" y="-206.6" font-family="Times,serif" font-size="14.00">JwtStrategy</text>
</g>
<!-- JwtStrategy&#45;&gt;AuthModule -->
<g id="edge31" class="edge">
<title>JwtStrategy&#45;&gt;AuthModule</title>
<path fill="none" stroke="black" d="M3770,-228.99C3770,-237.08 3770,-244.8 3770,-244.8 3770,-244.8 1763,-244.8 1763,-244.8 1763,-244.8 1763,-258.74 1763,-258.74"/>
<polygon fill="black" stroke="black" points="1759.5,-258.74 1763,-268.74 1766.5,-258.74 1759.5,-258.74"/>
</g>
<!-- LocalStrategy -->
<g id="node27" class="node">
<title>LocalStrategy</title>
<ellipse fill="#fdb462" stroke="black" cx="3630" cy="-210.8" rx="65.41" ry="18"/>
<text text-anchor="middle" x="3630" y="-206.6" font-family="Times,serif" font-size="14.00">LocalStrategy</text>
</g>
<!-- LocalStrategy&#45;&gt;AuthModule -->
<g id="edge32" class="edge">
<title>LocalStrategy&#45;&gt;AuthModule</title>
<path fill="none" stroke="black" d="M3630,-228.86C3630,-233.29 3630,-236.8 3630,-236.8 3630,-236.8 1741.11,-236.8 1741.11,-236.8 1741.11,-236.8 1741.11,-258.75 1741.11,-258.75"/>
<polygon fill="black" stroke="black" points="1737.61,-258.75 1741.11,-268.75 1744.61,-258.75 1737.61,-258.75"/>
</g>
<!-- BankService -->
<g id="node28" class="node">
<title>BankService</title>
<ellipse fill="#fdb462" stroke="black" cx="605" cy="-66.8" rx="60.25" ry="18"/>
<text text-anchor="middle" x="605" y="-62.6" font-family="Times,serif" font-size="14.00">BankService</text>
</g>
<!-- BankService&#45;&gt;BankModule -->
<g id="edge33" class="edge">
<title>BankService&#45;&gt;BankModule</title>
<path fill="none" stroke="black" d="M643.91,-80.74C643.91,-80.74 643.91,-114.64 643.91,-114.64"/>
<polygon fill="black" stroke="black" points="640.41,-114.64 643.91,-124.64 647.41,-114.64 640.41,-114.64"/>
</g>
<!-- ElectricitybillService -->
<g id="node29" class="node">
<title>ElectricitybillService</title>
<ellipse fill="#fdb462" stroke="black" cx="798" cy="-66.8" rx="93.19" ry="18"/>
<text text-anchor="middle" x="798" y="-62.6" font-family="Times,serif" font-size="14.00">ElectricitybillService</text>
</g>
<!-- ElectricitybillService&#45;&gt;ElectricitybillModule -->
<g id="edge34" class="edge">
<title>ElectricitybillService&#45;&gt;ElectricitybillModule</title>
<path fill="none" stroke="black" d="M798,-84.81C798,-84.81 798,-114.65 798,-114.65"/>
<polygon fill="black" stroke="black" points="794.5,-114.65 798,-124.65 801.5,-114.65 794.5,-114.65"/>
</g>
<!-- FlutterwaveService -->
<g id="node31" class="node">
<title>FlutterwaveService</title>
<ellipse fill="#fdb462" stroke="black" cx="2957" cy="-210.8" rx="86.23" ry="18"/>
<text text-anchor="middle" x="2957" y="-206.6" font-family="Times,serif" font-size="14.00">FlutterwaveService</text>
</g>
<!-- FlutterwaveService&#45;&gt;FlutterwaveModule -->
<g id="edge36" class="edge">
<title>FlutterwaveService&#45;&gt;FlutterwaveModule</title>
<path fill="none" stroke="black" d="M2875.71,-204.8C2839.95,-204.8 2805.92,-204.8 2805.92,-204.8 2805.92,-204.8 2805.92,-171.07 2805.92,-171.07"/>
<polygon fill="black" stroke="black" points="2809.42,-171.07 2805.92,-161.07 2802.42,-171.07 2809.42,-171.07"/>
</g>
<!-- CustomLogger -->
<g id="node33" class="node">
<title>CustomLogger</title>
<ellipse fill="#fdb462" stroke="black" cx="308" cy="-66.8" rx="68.94" ry="18"/>
<text text-anchor="middle" x="308" y="-62.6" font-family="Times,serif" font-size="14.00">CustomLogger</text>
</g>
<!-- CustomLogger&#45;&gt;LogModule -->
<g id="edge38" class="edge">
<title>CustomLogger&#45;&gt;LogModule</title>
<path fill="none" stroke="black" d="M334,-83.55C334,-91.29 334,-98.8 334,-98.8 334,-98.8 533.29,-98.8 533.29,-98.8 533.29,-98.8 533.29,-114.65 533.29,-114.65"/>
<polygon fill="black" stroke="black" points="529.79,-114.65 533.29,-124.65 536.79,-114.65 529.79,-114.65"/>
</g>
<!-- LogService -->
<g id="node34" class="node">
<title>LogService</title>
<ellipse fill="#fdb462" stroke="black" cx="165" cy="-66.8" rx="55.6" ry="18"/>
<text text-anchor="middle" x="165" y="-62.6" font-family="Times,serif" font-size="14.00">LogService</text>
</g>
<!-- LogService&#45;&gt;LogModule -->
<g id="edge39" class="edge">
<title>LogService&#45;&gt;LogModule</title>
<path fill="none" stroke="black" d="M193.38,-82.29C193.38,-95.3 193.38,-111.8 193.38,-111.8 193.38,-111.8 527.62,-111.8 527.62,-111.8 527.62,-111.8 527.62,-114.77 527.62,-114.77"/>
<polygon fill="black" stroke="black" points="524.12,-114.77 527.62,-124.77 531.12,-114.77 524.12,-114.77"/>
</g>
<!-- MobiledataService -->
<g id="node35" class="node">
<title>MobiledataService</title>
<ellipse fill="#fdb462" stroke="black" cx="1015" cy="-66.8" rx="83.95" ry="18"/>
<text text-anchor="middle" x="1015" y="-62.6" font-family="Times,serif" font-size="14.00">MobiledataService</text>
</g>
<!-- MobiledataService&#45;&gt;MobiledataModule -->
<g id="edge40" class="edge">
<title>MobiledataService&#45;&gt;MobiledataModule</title>
<path fill="none" stroke="black" d="M1049.16,-83.29C1049.16,-83.29 1049.16,-114.75 1049.16,-114.75"/>
<polygon fill="black" stroke="black" points="1045.66,-114.75 1049.16,-124.75 1052.66,-114.75 1045.66,-114.75"/>
</g>
<!-- MonnifyService -->
<g id="node36" class="node">
<title>MonnifyService</title>
<ellipse fill="#fdb462" stroke="black" cx="1213" cy="-66.8" rx="73.58" ry="18"/>
<text text-anchor="middle" x="1213" y="-62.6" font-family="Times,serif" font-size="14.00">MonnifyService</text>
</g>
<!-- MonnifyService&#45;&gt;MonnifyModule -->
<g id="edge41" class="edge">
<title>MonnifyService&#45;&gt;MonnifyModule</title>
<path fill="none" stroke="black" d="M1195,-84.43C1195,-84.43 1195,-114.74 1195,-114.74"/>
<polygon fill="black" stroke="black" points="1191.5,-114.74 1195,-124.74 1198.5,-114.74 1191.5,-114.74"/>
</g>
<!-- SettingsService -->
<g id="node38" class="node">
<title>SettingsService</title>
<ellipse fill="#fdb462" stroke="black" cx="4102" cy="-210.8" rx="71.22" ry="18"/>
<text text-anchor="middle" x="4102" y="-206.6" font-family="Times,serif" font-size="14.00">SettingsService</text>
</g>
<!-- SettingsService&#45;&gt;SettingsModule -->
<g id="edge43" class="edge">
<title>SettingsService&#45;&gt;SettingsModule</title>
<path fill="none" stroke="black" d="M4102,-192.53C4102,-174.24 4102,-148.8 4102,-148.8 4102,-148.8 3535.28,-148.8 3535.28,-148.8"/>
<polygon fill="black" stroke="black" points="3535.28,-145.3 3525.28,-148.8 3535.28,-152.3 3535.28,-145.3"/>
</g>
<!-- SmsService -->
<g id="node40" class="node">
<title>SmsService</title>
<ellipse fill="#fdb462" stroke="black" cx="85" cy="-210.8" rx="56.76" ry="18"/>
<text text-anchor="middle" x="85" y="-206.6" font-family="Times,serif" font-size="14.00">SmsService</text>
</g>
<!-- SmsService&#45;&gt;SmsModule -->
<g id="edge45" class="edge">
<title>SmsService&#45;&gt;SmsModule</title>
<path fill="none" stroke="black" d="M125.54,-197.91C125.54,-176.71 125.54,-136.8 125.54,-136.8 125.54,-136.8 282.32,-136.8 282.32,-136.8"/>
<polygon fill="black" stroke="black" points="282.32,-140.3 292.32,-136.8 282.32,-133.3 282.32,-140.3"/>
</g>
<!-- TransactionsService -->
<g id="node41" class="node">
<title>TransactionsService</title>
<ellipse fill="#fdb462" stroke="black" cx="1416" cy="-66.8" rx="89.16" ry="18"/>
<text text-anchor="middle" x="1416" y="-62.6" font-family="Times,serif" font-size="14.00">TransactionsService</text>
</g>
<!-- TransactionsService&#45;&gt;TransactionsModule -->
<g id="edge46" class="edge">
<title>TransactionsService&#45;&gt;TransactionsModule</title>
<path fill="none" stroke="black" d="M1362.6,-81.45C1362.6,-81.45 1362.6,-114.7 1362.6,-114.7"/>
<polygon fill="black" stroke="black" points="1359.1,-114.7 1362.6,-124.7 1366.1,-114.7 1359.1,-114.7"/>
</g>
<!-- TransfersService -->
<g id="node42" class="node">
<title>TransfersService</title>
<ellipse fill="#fdb462" stroke="black" cx="1621" cy="-66.8" rx="76.4" ry="18"/>
<text text-anchor="middle" x="1621" y="-62.6" font-family="Times,serif" font-size="14.00">TransfersService</text>
</g>
<!-- TransfersService&#45;&gt;TransfersModule -->
<g id="edge47" class="edge">
<title>TransfersService&#45;&gt;TransfersModule</title>
<path fill="none" stroke="black" d="M1544.52,-66.8C1528.97,-66.8 1517.27,-66.8 1517.27,-66.8 1517.27,-66.8 1517.27,-114.79 1517.27,-114.79"/>
<polygon fill="black" stroke="black" points="1513.77,-114.79 1517.27,-124.79 1520.77,-114.79 1513.77,-114.79"/>
</g>
<!-- TvsubscriptionService -->
<g id="node43" class="node">
<title>TvsubscriptionService</title>
<ellipse fill="#fdb462" stroke="black" cx="1835" cy="-66.8" rx="97.85" ry="18"/>
<text text-anchor="middle" x="1835" y="-62.6" font-family="Times,serif" font-size="14.00">TvsubscriptionService</text>
</g>
<!-- TvsubscriptionService&#45;&gt;TvsubscriptionModule -->
<g id="edge48" class="edge">
<title>TvsubscriptionService&#45;&gt;TvsubscriptionModule</title>
<path fill="none" stroke="black" d="M1737.02,-66.8C1717.58,-66.8 1703.03,-66.8 1703.03,-66.8 1703.03,-66.8 1703.03,-142.8 1703.03,-142.8 1703.03,-142.8 1700.63,-142.8 1700.63,-142.8"/>
<polygon fill="black" stroke="black" points="1700.63,-139.3 1690.63,-142.8 1700.63,-146.3 1700.63,-139.3"/>
</g>
<!-- TwillioService -->
<g id="node44" class="node">
<title>TwillioService</title>
<ellipse fill="#fdb462" stroke="black" cx="2041" cy="-66.8" rx="68.35" ry="18"/>
<text text-anchor="middle" x="2041" y="-62.6" font-family="Times,serif" font-size="14.00">TwillioService</text>
</g>
<!-- TwillioService&#45;&gt;TwillioModule -->
<g id="edge49" class="edge">
<title>TwillioService&#45;&gt;TwillioModule</title>
<path fill="none" stroke="black" d="M2005.96,-82.44C2005.96,-101.96 2005.96,-132.8 2005.96,-132.8 2005.96,-132.8 1819.27,-132.8 1819.27,-132.8"/>
<polygon fill="black" stroke="black" points="1819.27,-129.3 1809.27,-132.8 1819.27,-136.3 1819.27,-129.3"/>
</g>
<!-- UserService -->
<g id="node46" class="node">
<title>UserService</title>
<ellipse fill="#fdb462" stroke="black" cx="82" cy="-286.8" rx="58.44" ry="18"/>
<text text-anchor="middle" x="82" y="-282.6" font-family="Times,serif" font-size="14.00">UserService</text>
</g>
<!-- UserService&#45;&gt;UserModule -->
<g id="edge53" class="edge">
<title>UserService&#45;&gt;UserModule</title>
<path fill="none" stroke="black" d="M84.3,-268.74C84.3,-264.31 84.3,-260.8 84.3,-260.8 84.3,-260.8 1351.51,-260.8 1351.51,-260.8 1351.51,-260.8 1351.51,-238.85 1351.51,-238.85"/>
<polygon fill="black" stroke="black" points="1355.01,-238.85 1351.51,-228.85 1348.01,-238.85 1355.01,-238.85"/>
</g>
<!-- WalletService -->
<g id="node48" class="node">
<title>WalletService</title>
<ellipse fill="#fdb462" stroke="black" cx="2007" cy="-210.8" rx="65.96" ry="18"/>
<text text-anchor="middle" x="2007" y="-206.6" font-family="Times,serif" font-size="14.00">WalletService</text>
</g>
<!-- WalletService&#45;&gt;WalletModule -->
<g id="edge55" class="edge">
<title>WalletService&#45;&gt;WalletModule</title>
<path fill="none" stroke="black" d="M2039.35,-194.98C2039.35,-176.03 2039.35,-146.8 2039.35,-146.8 2039.35,-146.8 2224.57,-146.8 2224.57,-146.8"/>
<polygon fill="black" stroke="black" points="2224.57,-150.3 2234.57,-146.8 2224.57,-143.3 2224.57,-150.3"/>
</g>
</g>
</svg>
